<mxfile host="65bd71144e">
    <diagram id="58DRdc1MoBwIXn7VTKAM" name="Page-1">
        <mxGraphModel dx="601" dy="516" grid="1" gridSize="10" guides="1" tooltips="1" connect="1" arrows="1" fold="1" page="1" pageScale="1" pageWidth="827" pageHeight="1169" math="0" shadow="0">
            <root>
                <mxCell id="0"/>
                <mxCell id="1" parent="0"/>
                <mxCell id="2" value="record" style="swimlane;" vertex="1" parent="1">
                    <mxGeometry x="80" y="740" width="440" height="410" as="geometry"/>
                </mxCell>
                <mxCell id="3" value="Record" style="swimlane;fontStyle=0;childLayout=stackLayout;horizontal=1;startSize=26;fillColor=none;horizontalStack=0;resizeParent=1;resizeParentMax=0;resizeLast=0;collapsible=1;marginBottom=0;" vertex="1" parent="2">
                    <mxGeometry x="140" y="40" width="140" height="270" as="geometry"/>
                </mxCell>
                <mxCell id="4" value="+ name&#10;+ phones&#10;+ email&#10;+ address&#10;+ birthday&#10;&#10;+ add_phone()&#10;+ set_email()&#10;+ set_address()&#10;+ set_birthday()&#10;+ remove_phone()&#10;+ update_phone()&#10;+ days_to_birthday()&#10;Â + __contains__()&#10;+ __str__()&#10;# has_valid_phone()" style="text;strokeColor=none;fillColor=none;align=left;verticalAlign=top;spacingLeft=4;spacingRight=4;overflow=hidden;rotatable=0;points=[[0,0.5],[1,0.5]];portConstraint=eastwest;" vertex="1" parent="3">
                    <mxGeometry y="26" width="140" height="244" as="geometry"/>
                </mxCell>
            </root>
        </mxGraphModel>
    </diagram>
</mxfile>